<mxfile host="app.diagrams.net" modified="2024-04-18T00:59:16.002Z" agent="Mozilla/5.0 (Windows NT 10.0; Win64; x64) AppleWebKit/537.36 (KHTML, like Gecko) Chrome/123.0.0.0 Safari/537.36" etag="2WHWA4BbMtZzUSYBCx4b" version="24.2.5" type="device">
  <diagram id="C5RBs43oDa-KdzZeNtuy" name="Page-1">
    <mxGraphModel dx="1434" dy="738" grid="1" gridSize="10" guides="1" tooltips="1" connect="1" arrows="1" fold="1" page="1" pageScale="1" pageWidth="827" pageHeight="1169" math="0" shadow="0">
      <root>
        <mxCell id="WIyWlLk6GJQsqaUBKTNV-0" />
        <mxCell id="WIyWlLk6GJQsqaUBKTNV-1" parent="WIyWlLk6GJQsqaUBKTNV-0" />
        <mxCell id="i8puco6CzbDCep_iHM86-1" value="GeoLocation" style="text;html=1;align=center;verticalAlign=middle;whiteSpace=wrap;rounded=0;fillColor=#f5f5f5;fontColor=#333333;strokeColor=#666666;" vertex="1" parent="WIyWlLk6GJQsqaUBKTNV-1">
          <mxGeometry x="200" y="80" width="160" height="40" as="geometry" />
        </mxCell>
        <mxCell id="i8puco6CzbDCep_iHM86-2" value="coordinates: Object&lt;div&gt;acceleration: Int&lt;/div&gt;&lt;div&gt;direction: Enum(X,Y,Z)&lt;/div&gt;&lt;div&gt;buzzer_on: Boolean&lt;/div&gt;&lt;div&gt;pitch_angle: Int&lt;/div&gt;&lt;div&gt;roll_angle: Int&lt;/div&gt;" style="text;html=1;align=left;verticalAlign=middle;whiteSpace=wrap;rounded=0;strokeColor=default;" vertex="1" parent="WIyWlLk6GJQsqaUBKTNV-1">
          <mxGeometry x="200" y="120" width="160" height="120" as="geometry" />
        </mxCell>
        <mxCell id="i8puco6CzbDCep_iHM86-3" value="Text" style="text;html=1;align=center;verticalAlign=middle;whiteSpace=wrap;rounded=0;strokeColor=default;" vertex="1" parent="WIyWlLk6GJQsqaUBKTNV-1">
          <mxGeometry x="200" y="240" width="160" height="160" as="geometry" />
        </mxCell>
      </root>
    </mxGraphModel>
  </diagram>
</mxfile>
